<?xml version="1.0" encoding="utf-8"?>
<svg viewBox="0 0 500 447.255" xmlns="http://www.w3.org/2000/svg">
  <path fill="none" d="M 50.673 105.495 L 199.024 105.495 L 199.024 253.846 L 50.673 253.846 L 50.673 105.495 Z"/>
  <g transform="matrix(24.847473, 0, 0, 24.847473, 307.422516, 273.86911)" style="">
    <path d="M -11.311 -11.022 L 6.689 -11.022 C 7.241 -11.022 7.689 -10.574 7.689 -10.022 L 7.689 5.978 C 7.689 6.53 7.241 6.978 6.689 6.978 L -11.311 6.978 C -11.864 6.978 -12.311 6.53 -12.311 5.978 L -12.311 -10.022 C -12.311 -10.574 -11.864 -11.022 -11.311 -11.022 Z M 2.153 1.514 L 5.689 -2.022 L 2.153 -5.558 L 0.739 -4.142 L 2.861 -2.022 L 0.739 0.099 L 2.153 1.514 Z M -7.483 -2.022 L -5.361 -4.143 L -6.775 -5.558 L -10.311 -2.022 L -6.775 1.514 L -5.361 0.098 L -7.483 -2.022 Z M -3.067 2.978 L 0.573 -7.022 L -1.555 -7.022 L -5.195 2.978 L -3.067 2.978 Z" style="fill: rgb(40, 35, 35);"/>
  </g>
</svg>